<svg viewBox="0 0 153 38" x="0" y="0" fill="none" xmlns="http://www.w3.org/2000/svg"><defs><linearGradient id="paint6_linear_27_989" x1="64.3099" y1="20.024099999999997" x2="133.13" y2="18.711599999999997" gradientUnits="userSpaceOnUse" xmlns="http://www.w3.org/2000/svg">
<stop stop-color="#1EB1FB"/>
<stop offset="1" stop-color="#2BFD9B"/>
</linearGradient><linearGradient id="paint7_linear_27_989" x1="64.3132" y1="20.2254" x2="133.133" y2="18.9146" gradientUnits="userSpaceOnUse" xmlns="http://www.w3.org/2000/svg">
<stop stop-color="#1EB1FB"/>
<stop offset="1" stop-color="#2BFD9B"/>
</linearGradient><linearGradient id="paint8_linear_27_989" x1="64.2663" y1="17.7053" x2="133.086" y2="16.394399999999997" gradientUnits="userSpaceOnUse" xmlns="http://www.w3.org/2000/svg">
<stop stop-color="#1EB1FB"/>
<stop offset="1" stop-color="#2BFD9B"/>
</linearGradient><linearGradient id="paint9_linear_27_989" x1="64.278" y1="18.3091" x2="133.098" y2="16.998199999999997" gradientUnits="userSpaceOnUse" xmlns="http://www.w3.org/2000/svg">
<stop stop-color="#1EB1FB"/>
<stop offset="1" stop-color="#2BFD9B"/>
</linearGradient><linearGradient id="paint10_linear_27_989" x1="64.3283" y1="21.011899999999997" x2="133.148" y2="19.701" gradientUnits="userSpaceOnUse" xmlns="http://www.w3.org/2000/svg">
<stop stop-color="#1EB1FB"/>
<stop offset="1" stop-color="#2BFD9B"/>
</linearGradient><linearGradient id="paint11_linear_27_989" x1="0" y1="11.959699999999998" x2="24.8731" y2="11.959699999999998" gradientUnits="userSpaceOnUse" xmlns="http://www.w3.org/2000/svg">
<stop stop-color="#1EB1FB"/>
<stop offset="1" stop-color="#2BFD9B"/>
</linearGradient><linearGradient id="paint12_linear_27_989" x1="26.757199999999997" y1="36.2511" x2="0.2586000000000013" y2="17.7812" gradientUnits="userSpaceOnUse" xmlns="http://www.w3.org/2000/svg">
<stop stop-color="#1EB1FB"/>
<stop offset="1" stop-color="#2BFD9B"/>
</linearGradient><linearGradient id="paint13_linear_27_989" x1="152.998" y1="11.959699999999998" x2="128.125" y2="11.959699999999998" gradientUnits="userSpaceOnUse" xmlns="http://www.w3.org/2000/svg">
<stop stop-color="#1EB1FB"/>
<stop offset="1" stop-color="#2BFD9B"/>
</linearGradient><linearGradient id="paint14_linear_27_989" x1="126.24100000000001" y1="36.2511" x2="152.74" y2="17.7812" gradientUnits="userSpaceOnUse" xmlns="http://www.w3.org/2000/svg">
<stop stop-color="#1EB1FB"/>
<stop offset="1" stop-color="#2BFD9B"/>
</linearGradient><clipPath id="clip2_27_989" xmlns="http://www.w3.org/2000/svg">
<rect width="153" height="38" fill="white" transform="translate(0, 0)"/>
</clipPath></defs><g id="Camada_1" clip-path="url(#clip2_27_989)" xmlns="http://www.w3.org/2000/svg">
<g id="Group">
<path id="Vector_16" d="M37.6432,18.4275v6.894c0,0.4719 -0.1811,0.7188 -0.5884,0.7188h-0.4526c-0.4074,0 -0.6102,-0.2977 -0.6102,-0.7188v-0.9167c-0.9505,1.2144 -2.3736,1.9349 -3.889,1.9349c-2.6234,0 -4.3869,-1.6119 -4.3869,-4.0424c0,-2.4305 1.9227,-4.1421 4.7942,-4.1421c1.3344,0 2.4642,0.3974 3.4147,0.893v-0.9911c0,-1.8098 -1.2439,-3.0005 -3.0979,-3.0005c-1.0627,0 -2.3066,0.3721 -3.4146,1.2888c-0.3621,0.2977 -0.6336,0.1488 -0.8599,-0.1742l-0.1358,-0.1979c-0.2934,-0.4212 -0.1358,-0.844 0.181,-1.0909c1.5825,-1.2144 2.8715,-1.5375 4.3199,-1.5375c2.9855,0 4.7255,1.8098 4.7255,5.0843zM35.9468,21.5261v-0.7933c-0.7242,-0.3975 -1.9898,-0.9675 -3.3694,-0.9675c-1.854,0 -3.0761,1.0419 -3.0761,2.554c0,1.414 1.1316,2.3307 2.8045,2.3307c1.8087,0 3.641,-1.1907 3.641,-3.1239z" fill="#001D46"/>
<path id="Vector_17" d="M52.5891,19.8398c0,3.5958 -2.33,6.4982 -5.7212,6.4982c-1.6964,0 -3.076,-0.7442 -4.0483,-1.8605v5.5545c0,0.4465 -0.2028,0.7188 -0.6102,0.7188h-0.5649c-0.3839,0 -0.6102,-0.2723 -0.6102,-0.7188v-15.7974c0,-0.4466 0.2263,-0.7189 0.6102,-0.7189h0.4979c0.4073,0 0.6102,0.2723 0.6102,0.7189v0.9911c0.9957,-1.1653 2.4189,-1.8842 4.1153,-1.8842c3.3928,0 5.7212,2.877 5.7212,6.4983zM50.7586,19.8398c0,-2.5794 -1.5606,-4.7359 -4.0935,-4.7359c-2.1491,0 -4.0248,1.5629 -4.0248,4.7359c0,3.173 1.8539,4.7358 4.0248,4.7358c2.5329,0 4.0935,-2.1582 4.0935,-4.7358z" fill="#001D46"/>
<path id="Vector_18" d="M54.8287,9.6983c0,-0.844 0.6336,-1.5374 1.4014,-1.5374c0.7677,0 1.4014,0.6951 1.4014,1.5374c0,0.8423 -0.6337,1.5375 -1.4014,1.5375c-0.7678,0 -1.4014,-0.6698 -1.4014,-1.5375zM55.3249,25.3215v-11.0852c0,-0.4466 0.2263,-0.7189 0.6102,-0.7189h0.5649c0.3838,0 0.6101,0.2723 0.6101,0.7189v11.0852c0,0.4211 -0.2263,0.7188 -0.6101,0.7188h-0.5649c-0.3839,0 -0.6102,-0.2977 -0.6102,-0.7188z" fill="#001D46"/>
<path id="Vector_19" d="M60.0739,24.8006c0,-0.844 0.6336,-1.5375 1.4014,-1.5375c0.7677,0 1.4013,0.6952 1.4013,1.5375c0,0.8423 -0.6336,1.5374 -1.4013,1.5374c-0.7678,0 -1.4014,-0.6951 -1.4014,-1.5374z" fill="#001D46"/>
</g>
<g id="Group_2">
<path id="Vector_20" d="M65.0441,24.3777c-0.2229,-0.318 -0.357,-0.685 0.0453,-1.0267l0.1559,-0.1708c0.3118,-0.2926 0.6018,-0.3907 0.9588,0.0237c0.7359,0.9049 1.7166,1.4427 2.8313,1.4427c1.3595,0 2.2965,-0.685 2.2965,-1.7607c0,-1.3937 -1.2488,-1.8825 -2.6519,-2.5184c-1.5824,-0.7087 -3.1649,-1.4664 -3.1649,-3.447c0,-1.9806 1.4936,-3.398 3.7667,-3.398c1.2036,0 2.429,0.4398 3.3878,1.5645c0.2682,0.2926 0.4007,0.636 0.0453,1.0504l-0.1559,0.1708c-0.2447,0.2689 -0.58,0.4397 -0.9588,0.049c-0.8248,-0.8795 -1.4266,-1.1738 -2.362,-1.1738c-1.1818,0 -1.9395,0.636 -1.9395,1.5645c0,0.9777 0.8918,1.4428 2.1172,2.0297c1.9177,0.9049 3.6996,1.6136 3.6996,4.083c0,2.1023 -1.6042,3.4706 -3.9896,3.4706c-1.4265,0 -3.076,-0.6596 -4.0784,-1.9552z" fill="url(#paint6_linear_27_989)"/>
<path id="Vector_21" d="M84.702,18.5357v6.7959c0,0.4652 -0.178,0.7087 -0.58,0.7087h-0.446c-0.4,0 -0.602,-0.2926 -0.602,-0.7087v-0.9048c-0.935,1.1974 -2.34,1.9061 -3.833,1.9061c-2.5851,0 -4.3251,-1.5882 -4.3251,-3.9848c0,-2.3967 1.8942,-4.083 4.7251,-4.083c1.315,0 2.429,0.3907 3.366,0.8795v-0.9776c0,-1.7844 -1.225,-2.9582 -3.054,-2.9582c-1.047,0 -2.2729,0.367 -3.3658,1.2719c-0.3571,0.2926 -0.6236,0.1472 -0.8466,-0.1708l-0.1341,-0.1962c-0.29,-0.4161 -0.1341,-0.8305 0.1777,-1.0757c1.5607,-1.1975 2.8318,-1.5155 4.2578,-1.5155c2.942,0 4.659,1.7844 4.659,5.0115zM83.031,21.5903v-0.7814c-0.713,-0.3907 -1.961,-0.9539 -3.321,-0.9539c-1.827,0 -3.0306,1.0266 -3.0306,2.5184c0,1.3937 1.1147,2.2986 2.7646,2.2986c1.783,0 3.589,-1.1738 3.589,-3.08z" fill="url(#paint7_linear_27_989)"/>
<path id="Vector_22" d="M97.474,14.4037v10.9279c0,0.4161 -0.223,0.7087 -0.602,0.7087h-0.446c-0.379,0 -0.602,-0.2926 -0.602,-0.7087v-0.7814c-0.757,1.0994 -1.939,1.7844 -3.543,1.7844c-2.652,0 -4.414,-2.0296 -4.414,-5.0606v-6.8686c0,-0.4398 0.223,-0.7087 0.602,-0.7087h0.58c0.379,0 0.58,0.2689 0.58,0.7087v6.8196c0,2.0296 1.182,3.398 2.964,3.398c1.894,0 3.121,-1.3937 3.121,-3.5452v-6.6741c0,-0.4398 0.201,-0.7087 0.58,-0.7087h0.58c0.379,0 0.602,0.2689 0.602,0.7087zM90.408,11.5926c-0.244,-0.3416 -0.089,-0.6596 0.245,-0.9285l2.786,-2.4204c0.49,-0.416 0.803,-0.3416 1.026,-0.0236l0.245,0.3907c0.312,0.4888 0.201,0.7577 -0.245,1.0757l-3.054,2.0533c-0.379,0.2689 -0.647,0.3417 -0.847,0.049z" fill="url(#paint8_linear_27_989)"/>
<path id="Vector_23" d="M111.516,9.2704v16.0612c0,0.4161 -0.223,0.7087 -0.601,0.7087h-0.513c-0.379,0 -0.602,-0.2926 -0.602,-0.7087v-0.9285c-0.959,1.1484 -2.34,1.9315 -4.035,1.9315c-3.344,0 -5.639,-2.8601 -5.639,-6.4052c0,-3.5451 2.296,-6.4052 5.639,-6.4052c1.628,0 3.009,0.685 3.99,1.7844v-5.8674c0,-0.367 0.177,-0.5869 0.58,-0.7087l0.467,-0.1217c0.513,-0.1472 0.713,0.1471 0.713,0.6596zM109.934,19.9294c0,-3.129 -1.851,-4.6699 -3.99,-4.6699c-2.474,0 -4.035,2.1261 -4.035,4.6699c0,2.5438 1.561,4.6699 4.035,4.6699c2.163,0 3.99,-1.5645 3.99,-4.6699z" fill="url(#paint9_linear_27_989)"/>
<path id="Vector_24" d="M120.299,24.6466c0.98,0 2.229,-0.2926 3.433,-1.3937c0.4,-0.367 0.69,-0.3179 0.959,0l0.222,0.2199c0.336,0.3907 0.178,0.7341 -0.045,0.9776c-1.337,1.4174 -3.232,1.8825 -4.569,1.8825c-3.055,0 -5.908,-2.3222 -5.908,-6.3561c0,-3.6906 2.407,-6.4543 5.618,-6.4543c1.582,0 2.92,0.6106 3.879,1.6372c1.093,1.1739 1.671,2.7874 1.671,4.5228c0,0.4651 -0.312,0.7814 -0.758,0.7814h-8.604c0.201,2.6893 2.073,4.1794 4.102,4.1794zM116.22,18.8537h7.533c-0.134,-1.003 -0.489,-1.8571 -1.025,-2.444c-0.647,-0.7814 -1.583,-1.1975 -2.719,-1.1975c-2.029,0 -3.501,1.4173 -3.789,3.6432z" fill="url(#paint10_linear_27_989)"/>
</g>
<g id="Group_3">
<path id="Vector_25" d="M2.3988,22.5409c-0.2967,0.4076 -0.3688,0.9167 -0.4107,1.3801c-5.4781,-6.7587 2.1055,-11.8412 2.1055,-11.8412l20.7795,-12.0798v8.8391l-20.7259,12.095c-0.637,0.4364 -1.3075,1.0013 -1.7484,1.6051z" fill="url(#paint11_linear_27_989)"/>
<path id="Vector_26" d="M2.3988,15.4608c-0.2967,-0.4076 -0.3688,-0.9167 -0.4107,-1.3801c-5.4782,6.7587 2.1054,11.8412 2.1054,11.8412l20.7796,12.0798v-8.8391l-20.7259,-12.0967c-0.637,-0.4364 -1.3075,-1.0013 -1.7484,-1.6051z" fill="url(#paint12_linear_27_989)"/>
</g>
<g id="Group_4">
<path id="Vector_27" d="M150.601,22.5409c0.297,0.4076 0.369,0.9167 0.411,1.3801c5.478,-6.7587 -2.106,-11.8412 -2.106,-11.8412l-20.779,-12.0798v8.8391l20.726,12.095c0.637,0.4364 1.307,1.0013 1.748,1.6051z" fill="url(#paint13_linear_27_989)"/>
<path id="Vector_28" d="M150.601,15.4608c0.297,-0.4076 0.369,-0.9167 0.411,-1.3801c5.478,6.7587 -2.106,11.8412 -2.106,11.8412l-20.779,12.0798v-8.8391l20.726,-12.095c0.637,-0.4364 1.307,-1.0013 1.748,-1.6051z" fill="url(#paint14_linear_27_989)"/>
</g>
</g></svg>