<svg viewBox="0 0 122 37" x="0" y="0" fill="none" xmlns="http://www.w3.org/2000/svg"><defs><linearGradient id="paint15_linear_27_989" x1="-19.5007" y1="18.48599999999999" x2="156.997" y2="18.48599999999999" gradientUnits="userSpaceOnUse" xmlns="http://www.w3.org/2000/svg">
<stop stop-color="#1EB1FB"/>
<stop offset="1" stop-color="#2BFD9B"/>
</linearGradient><linearGradient id="paint16_linear_27_989" x1="-19.5008" y1="18.5" x2="156.997" y2="18.5" gradientUnits="userSpaceOnUse" xmlns="http://www.w3.org/2000/svg">
<stop stop-color="#1EB1FB"/>
<stop offset="1" stop-color="#2BFD9B"/>
</linearGradient><linearGradient id="paint17_linear_27_989" x1="-19.5008" y1="18.518" x2="156.997" y2="18.518" gradientUnits="userSpaceOnUse" xmlns="http://www.w3.org/2000/svg">
<stop stop-color="#1EB1FB"/>
<stop offset="1" stop-color="#2BFD9B"/>
</linearGradient><linearGradient id="paint18_linear_27_989" x1="-19.5008" y1="18.49600000000001" x2="156.997" y2="18.49600000000001" gradientUnits="userSpaceOnUse" xmlns="http://www.w3.org/2000/svg">
<stop stop-color="#1EB1FB"/>
<stop offset="1" stop-color="#2BFD9B"/>
</linearGradient><clipPath id="clip3_27_989" xmlns="http://www.w3.org/2000/svg">
<rect width="122" height="37" fill="white" transform="translate(0, 0)"/>
</clipPath></defs><g id="Camada_1_2" clip-path="url(#clip3_27_989)" xmlns="http://www.w3.org/2000/svg">
<path id="Vector_29" d="M121.626,22.192h-26.544c0.458,1.632 1.186,3.002 2.358,4.108c1.641,1.548 3.658,2.262 5.874,2.369c1.367,0.066 2.762,0.068 4.114,-0.123c2.05,-0.289 3.795,-1.268 5.133,-2.875c0.248,-0.298 0.412,-0.349 0.772,-0.137c2.251,1.32 4.523,2.605 6.85,3.939c-0.205,0.298 -0.372,0.577 -0.571,0.831c-2.662,3.404 -6.136,5.494 -10.39,6.275c-2.582,0.475 -5.179,0.495 -7.791,0.151c-5.279,-0.694 -9.515,-3.104 -12.61,-7.432c-1.567,-2.191 -2.542,-4.637 -2.939,-7.292c-0.685,-4.574 -0.229,-8.982 2.145,-13.05c2.468,-4.227 6.075,-7.047 10.843,-8.288c2.692,-0.701 5.445,-0.85 8.205,-0.405c7.141,1.152 11.636,5.39 13.948,12.037c1.056,3.038 1.233,6.198 0.656,9.38c-0.026,0.143 -0.028,0.291 -0.049,0.512zM112.823,15.184c-0.659,-4.13 -4.216,-7.324 -9.492,-7.021c-4.934,0.282 -7.791,3.685 -8.283,7.021h17.777z" fill="url(#paint15_linear_27_989)"/>
<path id="Vector_30" d="M37.251,18.482c0.1605,10.271 -8.3552,18.551 -18.6987,18.518c-10.2395,-0.035 -18.4731,-8.147 -18.5524,-18.337c-0.0811,-10.572 8.5033,-18.809 18.9085,-18.661c9.9363,0.14 18.4731,8.159 18.3426,18.48zM18.6193,28.158c5.5596,-0.019 9.5785,-4.126 9.5838,-9.807c0.0053,-5.618 -4.4385,-9.55 -9.6173,-9.518c-5.4696,0.033 -9.5133,4.145 -9.4992,9.718c0.0124,5.511 4.0948,9.625 9.5345,9.607z" fill="url(#paint16_linear_27_989)"/>
<path id="Vector_31" d="M38.6384,12.645c0,-1.583 0.0088,-3.083 -0.0053,-4.585c-0.0035,-0.372 0.1833,-0.421 0.4865,-0.419c1.9919,0.009 3.9273,-0.354 5.7905,-1.024c2.1187,-0.761 3.9766,-1.898 4.9109,-4.063c0.3313,-0.77 0.4635,-1.623 0.7033,-2.493h8.5987v36.853c-0.143,0.016 -0.284,0.046 -0.423,0.046c-3.08,0.003 -6.1592,-0.009 -9.2386,0.014c-0.4971,0.003 -0.6223,-0.137 -0.6223,-0.626c0.0159,-7.665 0.0053,-15.333 0.0229,-22.998c0,-0.547 -0.111,-0.726 -0.7015,-0.719c-2.949,0.034 -5.898,0.016 -8.847,0.016h-0.6751z" fill="url(#paint17_linear_27_989)"/>
<path id="Vector_32" d="M61.92,9.658c0,-0.275 0,-0.455 0,-0.636c0.002,-2.228 0.03,-4.457 -0.01,-6.684c-0.011,-0.61 0.234,-0.864 0.752,-1.095c1.816,-0.808 3.723,-1.145 5.69,-1.211c4.003,-0.137 7.534,1 10.383,3.894c2.046,2.079 3.229,4.604 3.594,7.473c0.209,1.651 0.317,3.324 0.331,4.987c0.039,4.864 0.007,9.73 0.007,14.595c0,1.819 -0.003,3.639 0.019,5.456c0.006,0.418 -0.126,0.538 -0.542,0.537c-2.704,-0.016 -5.408,-0.007 -8.112,-0.007c-0.714,0 -0.721,-0.004 -0.723,-0.744c-0.002,-6.646 -0.004,-13.295 0,-19.942c0,-1.592 -0.169,-3.14 -1.019,-4.542c-1.054,-1.739 -2.653,-2.654 -4.613,-2.983c-1.962,-0.33 -3.853,-0.076 -5.757,0.902z" fill="url(#paint18_linear_27_989)"/>
</g></svg>